<?xml version="1.0" encoding="UTF-8"?>
<svg width="56px" height="56px" viewBox="0 0 56 56" version="1.1" xmlns="http://www.w3.org/2000/svg" xmlns:xlink="http://www.w3.org/1999/xlink">
    <g id="Symbols" stroke="none" stroke-width="1" fill="none" fill-rule="evenodd">
        <g id="header-/-Sortiment-Hover-Ebene-2-Hover" transform="translate(-601.000000, -53.000000)">
            <g id="Logo-/-Bildmarke" transform="translate(601.000000, 53.000000)">
                <g id="Group-7">
                    <path d="M0,27.8606829 C0,12.4734309 12.4734309,0 27.8606829,0 C43.247935,0 55.7213659,12.4734309 55.7213659,27.8606829 C55.7213659,43.247935 43.247935,55.7213659 27.8606829,55.7213659 C12.4734309,55.7213659 0,43.247935 0,27.8606829" id="Fill-1" fill="#6cb300"></path>
                    <path d="M1.83333984,27.8604553 C1.83333984,13.4857561 13.4858927,1.83274797 27.8605919,1.83274797 C42.2357463,1.83274797 53.8882992,13.4857561 53.8882992,27.8604553 C53.8882992,42.2351545 42.2357463,53.8877073 27.8605919,53.8877073 C13.4858927,53.8877073 1.83333984,42.2351545 1.83333984,27.8604553" id="Fill-3" fill="#FFFFFF"></path>
                    <path d="M41.0144911,48.8709268 C37.2023935,51.2625366 32.6928,52.6456911 27.860865,52.6456911 C22.7534829,52.6456911 18.0071415,51.1009106 14.0630114,48.4529756 L27.3090602,34.8754797 L41.0144911,48.8709268 Z M3.07562927,27.8604553 C3.07562927,14.1723252 14.1722797,3.0756748 27.860865,3.0756748 C41.5489951,3.0756748 52.6456455,14.1723252 52.6456455,27.8604553 C52.6456455,34.2635772 50.217613,40.0994146 46.232052,44.4979187 L31.9424911,30.1423415 C31.9424911,30.1423415 34.0641171,28.3098211 34.7543285,27.6105041 C35.4445398,26.9107317 35.7368325,26.7909919 35.887987,26.2769756 C36.145678,25.402374 35.7814504,22.7398699 35.887987,21.9604228 C35.9508163,21.5014959 36.662426,20.6546667 36.662426,20.6546667 C36.662426,20.6546667 38.2964423,18.9773984 38.8987837,18.2890081 C39.3481496,17.7749919 39.8626211,17.6393171 40.2045398,17.988065 C40.7363122,18.5293984 40.1184911,19.1490407 40.1184911,19.1490407 C40.1184911,19.1490407 38.2554667,21.0225366 37.6945561,21.6166829 C36.9633691,22.3906667 36.5331252,23.2506992 37.6513041,24.2400325 C38.8150114,25.2694309 40.3338407,23.6809431 40.3338407,23.6809431 C40.3338407,23.6809431 45.1848976,18.4683902 45.7253203,17.944813 C46.5858081,17.1120976 45.467174,16.0371707 45.467174,16.0371707 C45.467174,16.0371707 44.2957268,14.8001626 43.5008,14.0830894 C42.312052,13.010439 41.5480846,12.8815935 40.7636293,12.8815935 C39.5594016,12.8815935 38.7981659,13.7334309 38.7981659,13.7334309 L27.3177106,25.4906992 L15.8600195,13.7334309 C15.8600195,13.7334309 15.0987837,12.8815935 13.8945561,12.8815935 C13.1101008,12.8815935 12.3461333,13.010439 11.1573854,14.0830894 C10.3624585,14.8001626 9.19101138,16.0371707 9.19101138,16.0371707 C9.19101138,16.0371707 8.07283252,17.1120976 8.93286504,17.944813 C9.4732878,18.4683902 14.3243447,23.6809431 14.3243447,23.6809431 C14.3243447,23.6809431 15.843174,25.2694309 17.0068813,24.2400325 C18.1250602,23.2506992 17.6948163,22.3906667 16.9636293,21.6166829 C16.4027187,21.0225366 14.5396943,19.1490407 14.5396943,19.1490407 C14.5396943,19.1490407 13.9218732,18.5293984 14.4536455,17.988065 C14.7955642,17.6393171 15.3100358,17.7749919 15.7594016,18.2890081 C16.3617431,18.9773984 17.9957593,20.6546667 17.9957593,20.6546667 C17.9957593,20.6546667 18.7073691,21.5014959 18.7701984,21.9604228 C18.876735,22.7398699 18.5129626,25.402374 18.7701984,26.2769756 C18.9213528,26.7909919 19.2136455,26.9107317 19.9038569,27.6105041 C20.5940683,28.3098211 22.7029463,30.1883252 22.7029463,30.1883252 C22.6733528,30.1883252 11.2643772,41.648748 8.99159675,43.932 C5.30242602,39.6045203 3.07562927,33.9926829 3.07562927,27.8604553 L3.07562927,27.8604553 Z" id="Fill-5" fill="#6cb300"></path>
                </g>
            </g>
        </g>
    </g>
</svg>
